#N canvas 251 207 450 332 10;
#X obj -146 36 sendOSC;
#X obj -252 35 dumpOSC 9999;
#X obj -252 56 OSCroute /freq;
#X obj -254 103 osc~;
#X obj -255 125 *~ 0.1;
#X obj -261 152 dac~;
#X floatatom -330 64 5 0 0 0 - - -;
#X connect 1 0 2 0;
#X connect 2 0 3 0;
#X connect 2 0 6 0;
#X connect 3 0 4 0;
#X connect 4 0 5 0;
#X connect 4 0 5 1;
