#N canvas 3 214 450 344 10;
#X obj -146 36 sendOSC;
#X obj -252 11 dumpOSC 9999;
#X obj -251 173 osc~;
#X obj -252 195 *~ 0.1;
#X obj -258 222 dac~;
#X floatatom -260 128 5 0 0 0 - - -;
#X floatatom -133 140 5 0 0 0 - - -;
#X obj -206 105 OSCroute /freq /volume;
#X obj -252 46 OSCroute /sine;
#X connect 1 0 8 0;
#X connect 2 0 3 0;
#X connect 3 0 4 0;
#X connect 3 0 4 1;
#X connect 7 0 2 0;
#X connect 7 0 5 0;
#X connect 7 1 3 1;
#X connect 7 1 6 0;
#X connect 8 0 7 0;
